<?xml version="1.0" standalone="no"?>
<!DOCTYPE svg PUBLIC "-//W3C//DTD SVG 20010904//EN"
 "http://www.w3.org/TR/2001/REC-SVG-20010904/DTD/svg10.dtd">
<svg version="1.0" xmlns="http://www.w3.org/2000/svg"
 width="260.000000pt" height="260.000000pt" viewBox="0 0 260.000000 260.000000"
 preserveAspectRatio="xMidYMid meet">
<metadata>
Created by potrace 1.11, written by Peter Selinger 2001-2013
</metadata>
<g transform="translate(0.000000,260.000000) scale(0.100000,-0.100000)"
fill="#000000" stroke="none">
<path d="M1180 2594 c-387 -49 -694 -222 -914 -514 -120 -159 -195 -325 -238
-523 -30 -144 -30 -370 0 -514 111 -517 498 -904 1015 -1015 144 -30 370 -30
514 0 319 68 585 237 777 492 120 159 195 325 238 523 30 144 30 370 0 514
-111 517 -504 909 -1015 1014 -98 20 -302 32 -377 23z m50 -244 l0 -120 -32 0
c-18 0 -70 -9 -115 -20 -247 -59 -466 -231 -601 -470 -41 -74 -91 -224 -98
-299 l-7 -61 -120 0 -119 0 7 68 c39 372 287 725 634 903 118 61 313 116 414
118 l37 1 0 -120z m384 85 c170 -43 359 -147 498 -274 68 -62 183 -211 232
-301 65 -119 110 -268 131 -427 l7 -53 -119 0 -119 0 -13 76 c-67 400 -398
723 -789 772 l-57 7 -3 119 -3 119 69 -6 c38 -4 113 -18 166 -32z m-80 -324
c253 -76 452 -253 550 -490 45 -108 60 -188 60 -321 0 -133 -15 -213 -60 -321
-84 -202 -254 -373 -455 -457 -177 -73 -398 -82 -579 -23 -279 91 -485 309
-561 596 -30 112 -30 298 0 410 85 320 320 544 651 621 84 20 307 11 394 -15z
m-1154 -920 c0 -16 11 -71 24 -123 90 -356 412 -644 774 -693 l52 -7 0 -119
c0 -65 -3 -119 -7 -119 -38 0 -208 35 -275 56 -173 55 -358 170 -487 303 -80
83 -190 248 -231 348 -37 89 -76 234 -86 322 l-7 61 122 0 121 0 0 -29z m2095
-18 c-62 -469 -360 -838 -793 -983 -69 -23 -243 -60 -284 -60 -5 0 -8 54 -8
119 l0 120 48 6 c133 18 262 67 375 142 219 145 367 365 414 613 l17 90 119 0
118 0 -6 -47z"/>
<path d="M1160 2015 c-144 -31 -265 -98 -370 -205 -86 -87 -131 -157 -174
-273 -29 -79 -30 -88 -30 -237 0 -147 2 -159 30 -237 94 -252 291 -424 546
-477 249 -52 499 30 677 220 212 227 255 556 109 836 -74 142 -225 278 -374
337 -126 49 -286 63 -414 36z m218 -96 c45 -22 86 -73 97 -121 6 -25 12 -28
46 -28 32 0 41 -5 54 -29 20 -39 27 -43 64 -30 49 17 116 3 158 -34 40 -35 72
-97 73 -140 0 -38 -26 -96 -57 -129 l-26 -28 18 -39 c17 -39 17 -41 -2 -74
l-20 -33 33 -36 c86 -94 60 -234 -54 -289 -42 -21 -109 -23 -152 -5 -10 4 -21
-3 -33 -23 -14 -24 -25 -30 -59 -33 -39 -3 -43 -6 -49 -37 -13 -63 -76 -123
-144 -135 -83 -16 -186 49 -208 131 -11 42 -12 43 -53 43 -33 0 -43 4 -51 23
-9 20 -17 22 -85 22 -62 0 -80 4 -109 24 -98 67 -115 187 -39 275 l30 33 -23
42 -22 41 21 37 22 37 -29 36 c-105 131 3 318 170 296 48 -6 51 -6 66 24 13
26 21 30 55 30 37 0 40 2 51 40 32 107 153 159 257 109z"/>
<path d="M1246 1818 c-56 -51 -26 -138 48 -138 77 0 111 86 52 136 -34 30 -68
30 -100 2z"/>
<path d="M885 1609 c-43 -24 -58 -75 -35 -119 13 -25 65 -41 94 -30 30 11 56
47 56 77 0 50 -73 95 -115 72z"/>
<path d="M1650 1607 c-14 -7 -31 -25 -38 -39 -39 -82 75 -153 135 -84 29 34
29 68 1 100 -28 31 -65 40 -98 23z"/>
<path d="M1203 1468 c-6 -7 -31 -47 -55 -89 l-45 -76 51 -86 50 -87 101 0 100
0 48 81 c26 44 47 86 47 92 0 7 -22 48 -48 92 l-48 80 -96 3 c-68 2 -98 -1
-105 -10z"/>
<path d="M861 1133 c-11 -10 -24 -32 -27 -50 -5 -27 -1 -37 24 -63 37 -36 71
-39 108 -6 37 31 39 90 5 117 -29 24 -82 24 -110 2z"/>
<path d="M1629 1131 c-34 -27 -32 -86 5 -117 37 -33 71 -30 108 6 25 26 29 36
24 63 -12 62 -87 89 -137 48z"/>
<path d="M1240 912 c-33 -34 -38 -66 -14 -100 22 -32 57 -43 94 -31 77 27 64
139 -17 155 -27 5 -37 1 -63 -24z"/>
</g>
</svg>
